HIERARCHY
ROOT Root
{
  OFFSET 0.0 0.0 0.0
  CHANNELS 6 Xposition Yposition Zposition Zrotation Yrotation Xrotation
  JOINT Hips
  {
    OFFSET 0.0 100.0 0.0
    CHANNELS 6 Xposition Yposition Zposition Zrotation Yrotation Xrotation
    JOINT Spine1
    {
      OFFSET -0.013727 5.003763 -0.053727
      CHANNELS 3 Zrotation Yrotation Xrotation
      JOINT Spine2
      {
        OFFSET -0.0 7.125301 -0.029825
        CHANNELS 3 Zrotation Yrotation Xrotation
        JOINT Chest
        {
          OFFSET -1e-06 7.550063 -0.815971
          CHANNELS 3 Zrotation Yrotation Xrotation
          JOINT Neck1
          {
            OFFSET -0.181677 26.311295 -0.553348
            CHANNELS 3 Zrotation Yrotation Xrotation
            JOINT Neck2
            {
              OFFSET -3e-06 7.709397 2.302585
              CHANNELS 3 Zrotation Yrotation Xrotation
              JOINT Head
              {
                OFFSET -5e-06 6.128916 1.953709
                CHANNELS 3 Zrotation Yrotation Xrotation
                JOINT HeadEnd
                {
                  OFFSET 0.003598 16.065403 -1.835379
                  CHANNELS 3 Zrotation Yrotation Xrotation
                }
                JOINT Jaw
                {
                  OFFSET 0.002637 0.475592 3.094941
                  CHANNELS 3 Zrotation Yrotation Xrotation
                }
                JOINT LeftEye
                {
                  OFFSET 3.206381 5.380205 7.586883
                  CHANNELS 3 Zrotation Yrotation Xrotation
                }
                JOINT RightEye
                {
                  OFFSET -3.22244 5.361869 7.558234
                  CHANNELS 3 Zrotation Yrotation Xrotation
                }
              }
            }
          }
          JOINT LeftShoulder
          {
            OFFSET 1.621652 23.237164 5.113413
            CHANNELS 3 Zrotation Yrotation Xrotation
            JOINT LeftArm
            {
              OFFSET 14.919846 2e-06 -5.502326
              CHANNELS 3 Zrotation Yrotation Xrotation
              JOINT LeftForeArm
              {
                OFFSET 28.739307 0.0 -0.002588
                CHANNELS 3 Zrotation Yrotation Xrotation
                JOINT LeftHand
                {
                  OFFSET 27.093981 -1e-06 0.002609
                  CHANNELS 3 Zrotation Yrotation Xrotation
                  JOINT LeftHandThumb1
                  {
                    OFFSET 2.276482 -1.392045 3.191413
                    CHANNELS 3 Zrotation Yrotation Xrotation
                    JOINT LeftHandThumb2
                    {
                      OFFSET 4.012836 -1.828127 1.641654
                      CHANNELS 3 Zrotation Yrotation Xrotation
                      JOINT LeftHandThumb3
                      {
                        OFFSET 2.798515 0.0 -3e-06
                        CHANNELS 3 Zrotation Yrotation Xrotation
                        JOINT LeftHandThumbEnd
                        {
                          OFFSET 3.180793 -4e-06 4e-06
                          CHANNELS 3 Zrotation Yrotation Xrotation
                        }
                      }
                    }
                  }
                  JOINT LeftHandIndex1
                  {
                    OFFSET 3.247555 -0.531998 2.296169
                    CHANNELS 3 Zrotation Yrotation Xrotation
                    JOINT LeftHandIndex2
                    {
                      OFFSET 6.364578 0.01206 0.1786
                      CHANNELS 3 Zrotation Yrotation Xrotation
                      JOINT LeftHandIndex3
                      {
                        OFFSET 3.662364 0.0 0.0
                        CHANNELS 3 Zrotation Yrotation Xrotation
                        JOINT LeftHandIndex4
                        {
                          OFFSET 2.329242 4e-06 4e-06
                          CHANNELS 3 Zrotation Yrotation Xrotation
                          JOINT LeftHandIndexEnd
                          {
                            OFFSET 2.759615 -0.180537 -0.113024
                            CHANNELS 3 Zrotation Yrotation Xrotation
                          }
                        }
                      }
                    }
                  }
                  JOINT LeftHandMiddle1
                  {
                    OFFSET 3.163495 0.240981 1.000332
                    CHANNELS 3 Zrotation Yrotation Xrotation
                    JOINT LeftHandMiddle2
                    {
                      OFFSET 6.19078 -0.259278 -1.002548
                      CHANNELS 3 Zrotation Yrotation Xrotation
                      JOINT LeftHandMiddle3
                      {
                        OFFSET 4.35652 -4e-06 -1e-06
                        CHANNELS 3 Zrotation Yrotation Xrotation
                        JOINT LeftHandMiddle4
                        {
                          OFFSET 2.996877 -8e-06 0.0
                          CHANNELS 3 Zrotation Yrotation Xrotation
                          JOINT LeftHandMiddleEnd
                          {
                            OFFSET 2.304287 -0.294569 -0.031741
                            CHANNELS 3 Zrotation Yrotation Xrotation
                          }
                        }
                      }
                    }
                  }
                  JOINT LeftHandRing1
                  {
                    OFFSET 2.882643 -0.053652 -0.322543
                    CHANNELS 3 Zrotation Yrotation Xrotation
                    JOINT LeftHandRing2
                    {
                      OFFSET 5.854541 -0.486202 -1.373841
                      CHANNELS 3 Zrotation Yrotation Xrotation
                      JOINT LeftHandRing3
                      {
                        OFFSET 4.350578 0.0 3e-06
                        CHANNELS 3 Zrotation Yrotation Xrotation
                        JOINT LeftHandRing4
                        {
                          OFFSET 2.651321 7e-06 2e-06
                          CHANNELS 3 Zrotation Yrotation Xrotation
                          JOINT LeftHandRingEnd
                          {
                            OFFSET 1.936105 0.077687 -7.1e-05
                            CHANNELS 3 Zrotation Yrotation Xrotation
                          }
                        }
                      }
                    }
                  }
                  JOINT LeftHandPinky1
                  {
                    OFFSET 2.8655 -0.310005 -1.600378
                    CHANNELS 3 Zrotation Yrotation Xrotation
                    JOINT LeftHandPinky2
                    {
                      OFFSET 5.087849 -1.331141 -1.77123
                      CHANNELS 3 Zrotation Yrotation Xrotation
                      JOINT LeftHandPinky3
                      {
                        OFFSET 3.070974 4e-06 0.0
                        CHANNELS 3 Zrotation Yrotation Xrotation
                        JOINT LeftHandPinky4
                        {
                          OFFSET 1.549672 0.0 1e-06
                          CHANNELS 3 Zrotation Yrotation Xrotation
                          JOINT LeftHandPinkyEnd
                          {
                            OFFSET 1.944893 -0.157802 0.057219
                            CHANNELS 3 Zrotation Yrotation Xrotation
                          }
                        }
                      }
                    }
                  }
                }
              }
            }
          }
          JOINT RightShoulder
          {
            OFFSET -1.380118 23.180309 5.214158
            CHANNELS 3 Zrotation Yrotation Xrotation
            JOINT RightArm
            {
              OFFSET -15.037196 1.2e-05 -5.545604
              CHANNELS 3 Zrotation Yrotation Xrotation
              JOINT RightForeArm
              {
                OFFSET -28.736639 2e-06 -0.002597
                CHANNELS 3 Zrotation Yrotation Xrotation
                JOINT RightHand
                {
                  OFFSET -27.133619 -0.0 0.002613
                  CHANNELS 3 Zrotation Yrotation Xrotation
                  JOINT RightHandThumb1
                  {
                    OFFSET -2.274032 -1.383988 3.163127
                    CHANNELS 3 Zrotation Yrotation Xrotation
                    JOINT RightHandThumb2
                    {
                      OFFSET -4.011429 -1.827466 1.640914
                      CHANNELS 3 Zrotation Yrotation Xrotation
                      JOINT RightHandThumb3
                      {
                        OFFSET -2.794935 -4e-06 -3e-06
                        CHANNELS 3 Zrotation Yrotation Xrotation
                        JOINT RightHandThumbEnd
                        {
                          OFFSET -3.183852 4e-06 1e-06
                          CHANNELS 3 Zrotation Yrotation Xrotation
                        }
                      }
                    }
                  }
                  JOINT RightHandIndex1
                  {
                    OFFSET -3.253266 -0.520057 2.282866
                    CHANNELS 3 Zrotation Yrotation Xrotation
                    JOINT RightHandIndex2
                    {
                      OFFSET -6.341917 0.012471 0.178266
                      CHANNELS 3 Zrotation Yrotation Xrotation
                      JOINT RightHandIndex3
                      {
                        OFFSET -3.654871 -8e-06 -0.0
                        CHANNELS 3 Zrotation Yrotation Xrotation
                        JOINT RightHandIndex4
                        {
                          OFFSET -2.327586 0.0 1e-06
                          CHANNELS 3 Zrotation Yrotation Xrotation
                          JOINT RightHandIndexEnd
                          {
                            OFFSET -2.76179 -0.180656 -0.113078
                            CHANNELS 3 Zrotation Yrotation Xrotation
                          }
                        }
                      }
                    }
                  }
                  JOINT RightHandMiddle1
                  {
                    OFFSET -3.168106 0.246593 1.00103
                    CHANNELS 3 Zrotation Yrotation Xrotation
                    JOINT RightHandMiddle2
                    {
                      OFFSET -6.180828 -0.258836 -1.000895
                      CHANNELS 3 Zrotation Yrotation Xrotation
                      JOINT RightHandMiddle3
                      {
                        OFFSET -4.348901 0.0 -0.0
                        CHANNELS 3 Zrotation Yrotation Xrotation
                        JOINT RightHandMiddle4
                        {
                          OFFSET -3.00024 -4e-06 -2e-06
                          CHANNELS 3 Zrotation Yrotation Xrotation
                          JOINT RightHandMiddleEnd
                          {
                            OFFSET -2.30252 -0.29437 -0.031706
                            CHANNELS 3 Zrotation Yrotation Xrotation
                          }
                        }
                      }
                    }
                  }
                  JOINT RightHandRing1
                  {
                    OFFSET -2.88569 -0.067952 -0.308858
                    CHANNELS 3 Zrotation Yrotation Xrotation
                    JOINT RightHandRing2
                    {
                      OFFSET -5.854198 -0.48613 -1.373731
                      CHANNELS 3 Zrotation Yrotation Xrotation
                      JOINT RightHandRing3
                      {
                        OFFSET -4.33881 -4e-06 -0.0
                        CHANNELS 3 Zrotation Yrotation Xrotation
                        JOINT RightHandRing4
                        {
                          OFFSET -2.654903 -4e-06 4e-06
                          CHANNELS 3 Zrotation Yrotation Xrotation
                          JOINT RightHandRingEnd
                          {
                            OFFSET -1.933568 0.077527 -5.2e-05
                            CHANNELS 3 Zrotation Yrotation Xrotation
                          }
                        }
                      }
                    }
                  }
                  JOINT RightHandPinky1
                  {
                    OFFSET -2.866425 -0.342796 -1.584145
                    CHANNELS 3 Zrotation Yrotation Xrotation
                    JOINT RightHandPinky2
                    {
                      OFFSET -5.091371 -1.332055 -1.772385
                      CHANNELS 3 Zrotation Yrotation Xrotation
                      JOINT RightHandPinky3
                      {
                        OFFSET -3.062664 -4e-06 1e-06
                        CHANNELS 3 Zrotation Yrotation Xrotation
                        JOINT RightHandPinky4
                        {
                          OFFSET -1.546529 4e-06 -2e-06
                          CHANNELS 3 Zrotation Yrotation Xrotation
                          JOINT RightHandPinkyEnd
                          {
                            OFFSET -1.945119 -0.157718 0.057211
                            CHANNELS 3 Zrotation Yrotation Xrotation
                          }
                        }
                      }
                    }
                  }
                }
              }
            }
          }
        }
      }
    }
    JOINT LeftLeg
    {
      OFFSET 10.043214 -8.434526 2.595655
      CHANNELS 3 Zrotation Yrotation Xrotation
      JOINT LeftShin
      {
        OFFSET -1e-06 -43.221752 -0.802913
        CHANNELS 3 Zrotation Yrotation Xrotation
        JOINT LeftFoot
        {
          OFFSET 1e-06 -42.155094 -3.481523
          CHANNELS 3 Zrotation Yrotation Xrotation
          JOINT LeftToeBase
          {
            OFFSET 0.0 -5.059472 13.231529
            CHANNELS 3 Zrotation Yrotation Xrotation
            JOINT LeftToeEnd
            {
              OFFSET -0.009607 -1.647619 6.513017
              CHANNELS 3 Zrotation Yrotation Xrotation
            }
          }
        }
      }
    }
    JOINT RightLeg
    {
      OFFSET -10.047278 -8.29526 2.620317
      CHANNELS 3 Zrotation Yrotation Xrotation
      JOINT RightShin
      {
        OFFSET 1e-06 -43.362206 -0.805556
        CHANNELS 3 Zrotation Yrotation Xrotation
        JOINT RightFoot
        {
          OFFSET 2e-06 -42.117393 -3.478398
          CHANNELS 3 Zrotation Yrotation Xrotation
          JOINT RightToeBase
          {
            OFFSET -0.0 -5.079609 13.284196
            CHANNELS 3 Zrotation Yrotation Xrotation
            JOINT RightToeEnd
            {
              OFFSET 0.009532 -1.634378 6.460591
              CHANNELS 3 Zrotation Yrotation Xrotation
            }
          }
        }
      }
    }
  }
}
MOTION
Frames: 4
Frame Time: 0.03333333333333333
0.0 0.0 0.0 0.0 -0.0 0.0 1.590674 100.067345 -0.099804 0.008573 -8.93913 1.659159 -0.558428 0.222926 -3.463145 -0.259347 2.604464 -5.983522 -9.098987 -0.364563 10.546577 -13.325218 8.837539 4.463089 -0.816986 0.988278 -3.863529 -6.573789 1.436797 -11.264756 7.7e-05 -2.3e-05 6e-06 0.052658 -0.13801 0.009451 0.686733 -3.942085 -10.717027 -0.610527 3.644506 -10.772379 -10.183479 -11.723836 5.168827 -49.556679 -26.679886 -6.05441 178.743256 -66.511818 -179.611008 20.597549 5.271003 -45.206806 -5.882111 9.861292 0.702593 -10.936878 -0.360573 7.156213 2e-06 8.774831 1e-06 -16.528162 17.704702 6.28875 -1.844033 2.498507 -2.50728 -10.163607 4.67895 4.621113 -20.976038 -0.0 6e-06 -21.226303 2.451703 -3.594002 -1e-06 -5e-06 -0.0 -1.362682 2.240798 -0.746323 -21.334929 0.584915 3.008328 -13.821223 -1e-06 3e-06 -23.887182 -0.249074 -0.839483 -62.368256 1.959506 -1.52973 -0.294025 1.679688 0.833258 -14.218219 0.093216 1.300584 -34.212074 -0.287556 0.967175 -20.03323 0.964543 1.212846 -0.0 1e-06 1e-06 -3.440391 0.788234 0.501657 -15.928196 -3.16731 2.999711 -6.33883 -1e-06 2e-06 -18.123459 3.648188 -4.905674 -4e-06 0.0 -2e-06 5.59427 21.506998 10.747757 -62.618813 38.581615 -51.373779 -20.101768 75.83696 -13.192436 13.058444 -8.590199 86.885361 2.243546 -5.255039 -3.18016 14.282896 -0.826598 6.952507 -1e-06 -12.69061 -1e-06 14.63049 -17.494331 4.914708 1.665667 -1.955923 -2.878302 4.7278 -4.170589 4.993927 11.020531 2e-06 -2e-06 12.109058 -3.735719 -2.866789 0.0 0.0 1e-06 1.291986 -1.928551 -1.498091 14.800131 0.567466 3.865609 14.242577 -1.341738 -6.660664 19.631973 0.143925 -0.648247 53.053421 -1.077553 -4.848334 0.35303 -1.511152 -0.03194 20.222795 3.684309 2.316631 18.787277 3e-06 -4e-06 10.751632 -0.479871 1.397905 0.0 0.0 -1e-06 3.273807 0.305947 -0.58011 21.486818 11.830379 2.266135 8.16293 -0.0 -0.0 18.399094 -3.798988 -4.94058 3e-06 1e-06 -2e-06 4.280433 22.488346 -2.454332 -0.068572 -0.279182 8.303876 -6.429378 3.877038 -6.073288 1.632484 -2.157684 -0.071626 0.0 -1e-06 2e-06 -7.496731 -12.785144 -5.077132 0.075772 0.220272 4.493857 9.79361 8.09751 0.673942 -1.354761 0.767017 -0.289143 0.0 -0.0 -1e-06 
0.0 0.0 0.0 0.0 -0.0 0.0 1.559693 100.085388 -0.067499 -0.05633 -8.95883 1.631028 -0.542998 0.183874 -3.425453 -0.264454 2.620059 -6.014946 -9.022991 -0.325039 10.556864 -13.301946 8.798364 4.548946 -0.776817 1.062158 -3.87272 -6.648479 1.350134 -11.449697 7.8e-05 -2.3e-05 6e-06 0.048349 -0.144672 0.00719 0.684608 -3.94949 -10.728922 -0.616611 3.637902 -10.784838 -9.899287 -11.60929 5.08956 -50.00972 -26.517235 -5.855695 178.570221 -66.358681 -179.534637 20.436939 5.17858 -44.980412 -5.882108 9.861294 0.702593 -10.936879 -0.360575 7.156213 1e-06 8.774831 1e-06 -16.480507 17.662855 6.297968 -1.844035 2.498506 -2.50728 -10.163608 4.678948 4.621114 -20.97604 -1e-06 5e-06 -21.226301 2.451701 -3.594001 -0.0 -6e-06 -0.0 -1.362681 2.2408 -0.746323 -21.334929 0.58491 3.008327 -13.821223 -2e-06 4e-06 -23.887184 -0.249075 -0.839481 -62.174282 1.950737 -1.480822 -0.294024 1.679689 0.833256 -14.218219 0.093215 1.300584 -34.212074 -0.28756 0.967177 -20.033228 0.96454 1.212847 -0.0 1e-06 1e-06 -3.440391 0.788232 0.501655 -15.928201 -3.167312 2.999712 -6.338831 -1e-06 2e-06 -18.123459 3.648185 -4.90567 -4e-06 0.0 -2e-06 5.714829 21.46073 10.907993 -62.568371 38.832981 -51.426765 -20.650408 75.78054 -13.767657 12.54759 -8.963457 85.493996 2.243541 -5.255041 -3.180158 14.282894 -0.826595 6.952507 -2e-06 -12.690611 -0.0 14.731455 -17.362169 4.72958 1.665666 -1.955922 -2.878299 4.727799 -4.170591 4.993925 11.020528 2e-06 0.0 12.109054 -3.735718 -2.866785 0.0 -1e-06 -0.0 1.291986 -1.928551 -1.49809 14.800132 0.567467 3.86561 14.242577 -1.341739 -6.660662 19.631973 0.143924 -0.648244 52.776871 -1.12436 -4.876763 0.353029 -1.511152 -0.03194 20.222797 3.684311 2.316633 18.787281 4e-06 -0.0 10.751632 -0.479869 1.397908 -0.0 0.0 0.0 3.273807 0.305946 -0.580112 21.486816 11.83038 2.266138 8.16293 2e-06 -0.0 18.399086 -3.798988 -4.940577 3e-06 2e-06 -2e-06 4.384297 22.406853 -2.265337 -0.062472 -0.286816 8.065106 -6.359339 3.947446 -5.99239 1.633277 -2.119943 -0.043235 0.0 -0.0 2e-06 -7.423985 -12.787833 -4.797118 0.070283 0.21157 4.04581 9.809896 8.078084 0.899958 -1.350721 0.776133 -0.218471 -0.0 -0.0 -1e-06 
0.0 0.0 0.0 0.0 -0.0 0.0 1.520878 100.102592 -0.024266 -0.098748 -9.003086 1.583371 -0.511952 0.154641 -3.38491 -0.275314 2.624674 -6.038732 -8.938362 -0.266031 10.563461 -13.258701 8.731425 4.653384 -0.705612 1.068655 -3.884959 -6.716489 1.299668 -11.555285 7.6e-05 -2.3e-05 6e-06 0.045251 -0.153892 0.004843 0.674881 -3.957883 -10.742341 -0.612702 3.626689 -10.793276 -9.644117 -11.490307 5.023317 -50.376312 -26.256445 -5.66086 178.431778 -66.149193 -179.509674 20.285898 4.976218 -44.795612 -5.882112 9.861292 0.702591 -10.936881 -0.360574 7.156215 0.0 8.774831 -1e-06 -16.483728 17.623734 6.265535 -1.844036 2.498505 -2.507279 -10.16361 4.67895 4.621115 -20.97604 1e-06 5e-06 -21.226303 2.451704 -3.594001 -1e-06 -6e-06 -0.0 -1.362682 2.240801 -0.746324 -21.33493 0.584914 3.00833 -13.821225 -0.0 3e-06 -23.88719 -0.249073 -0.839485 -62.024975 1.950148 -1.457412 -0.294024 1.679689 0.833258 -14.21822 0.093216 1.300582 -34.212074 -0.287558 0.967174 -20.03323 0.96454 1.212845 -1e-06 0.0 0.0 -3.440392 0.788235 0.501656 -15.928201 -3.167311 2.999713 -6.338833 1e-06 1e-06 -18.123463 3.648189 -4.905674 -4e-06 0.0 -2e-06 5.945476 21.33666 11.102088 -62.715073 39.088203 -51.698292 -20.792347 75.70488 -13.953628 11.755521 -9.345312 83.334343 2.243542 -5.255038 -3.180157 14.282894 -0.826596 6.952504 -1e-06 -12.690608 2e-06 14.870136 -17.20015 4.495699 1.665667 -1.955922 -2.8783 4.727799 -4.17059 4.993924 11.020529 2e-06 -2e-06 12.109055 -3.735719 -2.866785 -0.0 -0.0 -0.0 1.291986 -1.92855 -1.498088 14.800132 0.567468 3.865609 14.242577 -1.341736 -6.66066 19.631973 0.143925 -0.648245 52.282356 -1.159189 -4.923522 0.353029 -1.511151 -0.031941 20.222797 3.68431 2.316633 18.787279 2e-06 -2e-06 10.75163 -0.47987 1.397906 0.0 0.0 -1e-06 3.273808 0.305948 -0.580112 21.486816 11.830378 2.266134 8.16293 1e-06 0.0 18.399092 -3.798988 -4.940578 3e-06 0.0 -1e-06 4.484732 22.383055 -1.990905 -0.0605 -0.293114 7.722553 -6.361071 4.049643 -5.878377 1.638286 -2.089704 -0.018657 -0.0 -1e-06 2e-06 -7.374289 -12.816816 -4.534699 0.064079 0.208992 3.674811 9.835527 8.099518 1.091488 -1.350008 0.779916 -0.160501 -0.0 -1e-06 -1e-06 
0.0 0.0 0.0 0.0 -0.0 0.0 1.479981 100.109566 0.027036 -0.125146 -9.044584 1.54225 -0.459463 0.147773 -3.353087 -0.284766 2.633207 -6.056559 -8.86651 -0.230947 10.58448 -13.219479 8.654306 4.761549 -0.646299 1.028308 -3.884904 -6.789827 1.28455 -11.642768 7.7e-05 -2.2e-05 6e-06 0.041225 -0.164053 0.00597 0.657294 -3.968086 -10.753859 -0.602908 3.615376 -10.798172 -9.483154 -11.355142 4.963781 -50.602051 -25.976978 -5.421881 178.22847 -65.895721 -179.390137 20.159288 4.788209 -44.683041 -5.882106 9.86129 0.70259 -10.936875 -0.360577 7.156209 1e-06 8.774828 -2e-06 -16.520439 17.613552 6.227171 -1.844031 2.498507 -2.507276 -10.163604 4.678944 4.621111 -20.97603 -4e-06 7e-06 -21.226292 2.4517 -3.593996 -1e-06 -6e-06 -0.0 -1.362682 2.240798 -0.746323 -21.334919 0.584905 3.008329 -13.821216 -3e-06 7e-06 -23.887175 -0.249075 -0.839477 -61.985168 1.965691 -1.442267 -0.294025 1.679687 0.833258 -14.218213 0.093214 1.300583 -34.212063 -0.287562 0.967179 -20.033218 0.964538 1.212847 -1e-06 1e-06 1e-06 -3.440389 0.788234 0.501656 -15.928191 -3.167313 2.999712 -6.338829 -2e-06 2e-06 -18.123451 3.648183 -4.905668 -4e-06 0.0 -3e-06 6.217533 21.193756 11.274879 -62.877068 39.325405 -52.018276 -20.785727 75.655052 -13.922414 10.847717 -9.553524 80.617653 2.24354 -5.255037 -3.180157 14.282887 -0.826596 6.952505 -3e-06 -12.690609 2e-06 14.987812 -17.062679 4.253937 1.665668 -1.95592 -2.8783 4.727797 -4.170589 4.993927 11.020526 3e-06 -0.0 12.109045 -3.735719 -2.866782 -0.0 -0.0 0.0 1.291983 -1.928551 -1.49809 14.800123 0.567467 3.86561 14.242566 -1.341737 -6.660658 19.63196 0.143924 -0.648245 51.626888 -1.187945 -5.011634 0.35303 -1.51115 -0.031939 20.222786 3.684309 2.316633 18.78727 2e-06 0.0 10.751626 -0.479872 1.397907 -0.0 0.0 -0.0 3.273804 0.305946 -0.580111 21.486807 11.830377 2.266134 8.162926 -0.0 1e-06 18.399076 -3.79899 -4.940574 3e-06 1e-06 -2e-06 4.567976 22.392483 -1.778967 -0.055824 -0.293016 7.496737 -6.414547 4.154417 -5.818795 1.644013 -2.068425 -0.012419 0.0 -0.0 2e-06 -7.338131 -12.863201 -4.3749 0.06007 0.214776 3.505106 9.867509 8.133645 1.165514 -1.352166 0.779109 -0.159688 0.0 -0.0 -1e-06 
